HIERARCHY
ROOT RootJoint
{
    OFFSET   0.000000   0.000000   0.000000
    CHANNELS 6 Xposition Yposition Zposition Xrotation Yrotation Zrotation
    JOINT pelvis_lowerback
    {
        OFFSET   0.000000   0.093605   0.000000
        CHANNELS 3 Xrotation Yrotation Zrotation
        JOINT lowerback_torso
        {
            OFFSET   0.000000   0.100000   0.000000
            CHANNELS 3 Xrotation Yrotation Zrotation
            JOINT torso_head
            {
                OFFSET   0.000000   0.282350   0.000000
                CHANNELS 3 Xrotation Yrotation Zrotation
                End Site
                {
                    OFFSET   0.000000   0.192650   0.000000
                }
            }
            JOINT rTorso_Clavicle
            {
                OFFSET  -0.001000   0.157500   0.000000
                CHANNELS 3 Xrotation Yrotation Zrotation
                JOINT rShoulder
                {
                    OFFSET  -0.117647   0.000000   0.000000
                    CHANNELS 3 Xrotation Yrotation Zrotation
                    JOINT rElbow
                    {
                        OFFSET  -0.245000   0.000000   0.000000
                        CHANNELS 3 Xrotation Yrotation Zrotation
                        JOINT rWrist
                        {
                            OFFSET  -0.240000   0.000000   0.000000
                            CHANNELS 3 Xrotation Yrotation Zrotation
                            End Site
                            {
                                OFFSET  -0.116353  -0.002500   0.000000
                            }
                        }
                    }
                }
            }
            JOINT lTorso_Clavicle
            {
                OFFSET   0.001000   0.157500   0.000000
                CHANNELS 3 Xrotation Yrotation Zrotation
                JOINT lShoulder
                {
                    OFFSET   0.117647   0.000000   0.000000
                    CHANNELS 3 Xrotation Yrotation Zrotation
                    JOINT lElbow
                    {
                        OFFSET   0.245000   0.000000   0.000000
                        CHANNELS 3 Xrotation Yrotation Zrotation
                        JOINT lWrist
                        {
                            OFFSET   0.240000   0.000000   0.000000
                            CHANNELS 3 Xrotation Yrotation Zrotation
                            End Site
                            {
                                OFFSET   0.116353  -0.002500   0.000000
                            }
                        }
                    }
                }
            }
        }
    }
    JOINT rHip
    {
        OFFSET  -0.100000  -0.051395   0.000000
        CHANNELS 3 Xrotation Yrotation Zrotation
        JOINT rKnee
        {
            OFFSET   0.000000  -0.410000   0.000000
            CHANNELS 3 Xrotation Yrotation Zrotation
            JOINT rAnkle
            {
                OFFSET   0.000000  -0.390000   0.000000
                CHANNELS 3 Xrotation Yrotation Zrotation
                JOINT rToeJoint
                {
                    OFFSET   0.000000  -0.050000   0.130000
                    CHANNELS 3 Xrotation Yrotation Zrotation
                    End Site
                    {
                        OFFSET  -0.010000   0.002000   0.060000
                    }
                }
            }
        }
    }
    JOINT lHip
    {
        OFFSET   0.100000  -0.051395   0.000000
        CHANNELS 3 Xrotation Yrotation Zrotation
        JOINT lKnee
        {
            OFFSET   0.000000  -0.410000   0.000000
            CHANNELS 3 Xrotation Yrotation Zrotation
            JOINT lAnkle
            {
                OFFSET   0.000000  -0.390000   0.000000
                CHANNELS 3 Xrotation Yrotation Zrotation
                JOINT lToeJoint
                {
                    OFFSET   0.000000  -0.050000   0.130000
                    CHANNELS 3 Xrotation Yrotation Zrotation
                    End Site
                    {
                        OFFSET   0.010000   0.002000   0.060000
                    }
                }
            }
        }
    }
}
MOTION
Frames: 7
Frame Time:   0.008333
 -3.064956   0.890745   3.358447 -32.126834  76.369861  33.750063  10.201163   0.138214  -2.455213   1.283958  -1.760935   1.727477  -1.043295  -5.280887   3.603833   2.387006   2.490739   9.339447   7.970835  14.913699  45.603062  -0.023016  44.183822   0.028421   8.861165   3.208267 -21.693152   3.712270  -2.238536 -10.045144   9.065087  -9.330206 -49.779725  -0.009528 -22.751515  -0.015107   7.101104  -2.524200  19.561717   2.790684  -0.948652  11.294743  18.717710   0.000423   0.003951 -15.391458  -7.199875 -13.717164  -0.882020  -0.000035   0.000002 -13.480402   1.479844  10.098779  66.073040   0.015268   0.015246  -8.485127  12.306410   0.619057  -4.348581  -0.008169  -0.003255
 -3.057639   0.890971   3.358974 -29.666459  75.395311  31.371085  10.210526   0.404999  -2.501504   1.342179  -1.683460   1.604548  -0.991527  -5.267430   3.617446   2.328607   2.604693   9.286090   7.870900  15.132236  45.437426  -0.022465  44.929596   0.027274   8.901472   3.234606 -21.701724   3.822016  -2.163582 -10.084719   9.542727  -9.462491 -49.951817  -0.009264 -22.417706  -0.015525   7.140864  -2.538750  19.397606   3.332662  -0.445062  11.040379  18.701914   0.000341   0.003265 -15.661356  -6.425052 -13.553067  -0.995932  -0.000027  -0.000054 -14.115868   1.196851   9.925339  64.336223   0.026289   0.026857  -8.984513  12.505116   0.943570  -4.229424  -0.006963  -0.003432
 -3.050462   0.891120   3.359480 -27.432427  74.421917  29.184467  10.224829   0.654675  -2.506412   1.396153  -1.603431   1.494052  -0.943868  -5.256390   3.630619   2.253923   2.725861   9.210066   7.763827  15.347407  45.269480  -0.021907  45.635853   0.026154   8.957435   3.300759 -21.712991   3.937195  -2.092886 -10.129807   9.997534  -9.587830 -50.130250  -0.008923 -22.104355  -0.015668   7.188795  -2.557985  19.183836   3.824036   0.029999  10.807987  18.696767   0.000273   0.002646 -15.915603  -5.683649 -13.386150  -1.137241  -0.000021  -0.000059 -14.742052   0.890295   9.773105  62.432527   0.035617   0.038732  -9.459399  12.685028   1.248579  -4.093469  -0.005939  -0.003760
 -3.043370   0.891163   3.360006 -25.515565  73.462733  27.285602  10.256581   0.885899  -2.492548   1.456679  -1.526148   1.399764  -0.896739  -5.246793   3.646403   2.174119   2.844509   9.127341   7.657390  15.551327  45.104129  -0.021185  46.298198   0.024925   9.018069   3.381774 -21.743828   4.047303  -2.026981 -10.175014  10.423501  -9.706155 -50.300759  -0.008480 -21.811475  -0.015506   7.235627  -2.576542  18.957651   4.300436   0.493934  10.594115  18.698734   0.000216   0.002105 -16.173633  -4.971412 -13.218539  -1.278136  -0.000015  -0.000063 -15.375198   0.582584   9.645324  60.565669   0.041279   0.048302  -9.907221  12.850198   1.534745  -3.966320  -0.004993  -0.003960
 -3.036314   0.891117   3.360577 -23.885322  72.521269  25.650399  10.301488   1.101952  -2.471424   1.525689  -1.452182   1.317885  -0.849746  -5.237933   3.663180   2.097039   2.956658   9.046532   7.556827  15.741915  44.946305  -0.020280  46.916653   0.023590   9.077646   3.462435 -21.784244   4.151603  -1.964513 -10.217681  10.822185  -9.816700 -50.459315  -0.007964 -21.537437  -0.015099   7.279763  -2.591551  18.734983   4.773495   0.939507  10.394187  18.709400   0.000168   0.001617 -16.434224  -4.297446 -13.051813  -1.431968  -0.000012  -0.000051 -16.008858   0.287150   9.533968  58.790269   0.043639   0.055197 -10.327872  13.002238   1.802646  -3.851222  -0.004128  -0.004020
 -3.029261   0.890999   3.361208 -22.506102  71.606820  24.246488  10.354152   1.301932  -2.447256   1.601440  -1.383557   1.246018  -0.803563  -5.229688   3.679816   2.027188   3.059821   8.971236   7.465055  15.918366  44.798513  -0.019231  47.492764   0.022186   9.133349   3.535559 -21.825568   4.250504  -1.904688 -10.256838  11.195601  -9.919326 -50.605509  -0.007408 -21.280826  -0.014505   7.320734  -2.601714  18.520881   5.246205   1.368599  10.205899  18.731156   0.000126   0.001165 -16.690600  -3.659163 -12.885538  -1.612306  -0.000009  -0.000041 -16.636502   0.008126   9.431413  57.119615   0.043444   0.059602 -10.722402  13.142355   2.053207  -3.748170  -0.003348  -0.003960
 -3.022188   0.890821   3.361910 -21.335107  70.725062  23.033252  10.409666   1.486468  -2.422038   1.680988  -1.320969   1.182572  -0.758930  -5.221983   3.695776   1.966412   3.153073   8.902537   7.383123  16.080794  44.661539  -0.018093  48.028783   0.020752   9.184039   3.598316 -21.863052   4.344462  -1.846987 -10.292108  11.545568 -10.014232 -50.739903  -0.006835 -21.040478  -0.013778   7.358517  -2.606914  18.316853   5.718875   1.779109  10.028681  18.764325   0.000091   0.000743 -16.937334  -3.057364 -12.720554  -1.830044  -0.000006  -0.000032 -17.252926  -0.251845   9.331848  55.554161   0.041443   0.061896 -11.092152  13.271569   2.287374  -3.656352  -0.002658  -0.003810
